<svg xmlns="http://www.w3.org/2000/svg" viewBox="0 0 152.78 168.04"><defs><style>.cls-1{fill:#b3b3b3;}.cls-2{fill:#ccc;}.cls-3{fill:#ec008c;}</style></defs><title>amostra</title><g id="Camada_2" data-name="Camada 2"><g id="Camada_1-2" data-name="Camada 1"><rect class="cls-1" x="137.46" y="106.98" width="15.27" height="15.27"/><rect class="cls-1" x="137.47" y="91.7" width="15.27" height="15.27"/><rect class="cls-1" x="137.48" y="76.43" width="15.27" height="15.27"/><rect class="cls-1" x="137.49" y="61.16" width="15.27" height="15.27"/><rect class="cls-1" x="122.17" y="137.51" width="15.27" height="15.27"/><rect class="cls-1" x="122.18" y="122.24" width="15.27" height="15.27"/><rect class="cls-1" x="122.19" y="106.97" width="15.27" height="15.27"/><rect class="cls-1" x="122.2" y="91.69" width="15.27" height="15.27"/><rect class="cls-1" x="122.21" y="76.42" width="15.27" height="15.27"/><rect class="cls-1" x="122.22" y="61.15" width="15.27" height="15.27"/><rect class="cls-1" x="122.23" y="45.87" width="15.27" height="15.27"/><rect class="cls-1" x="122.24" y="30.6" width="15.27" height="15.27"/><rect class="cls-1" x="106.89" y="137.5" width="15.27" height="15.27"/><rect class="cls-1" x="106.9" y="122.23" width="15.27" height="15.27"/><rect class="cls-1" x="106.91" y="106.96" width="15.27" height="15.27"/><rect class="cls-1" x="106.92" y="91.68" width="15.27" height="15.27"/><rect class="cls-1" x="106.93" y="76.41" width="15.27" height="15.27"/><rect class="cls-1" x="106.95" y="61.14" width="15.27" height="15.27"/><rect class="cls-1" x="106.96" y="45.86" width="15.27" height="15.27"/><rect class="cls-1" x="106.97" y="30.59" width="15.27" height="15.27"/><rect class="cls-1" x="91.61" y="152.76" width="15.27" height="15.27"/><rect class="cls-1" x="91.62" y="137.49" width="15.27" height="15.27"/><rect class="cls-1" x="91.63" y="122.22" width="15.27" height="15.27"/><rect class="cls-1" x="91.64" y="106.95" width="15.27" height="15.27"/><rect class="cls-1" x="91.65" y="91.67" width="15.27" height="15.27"/><rect class="cls-1" x="91.66" y="76.4" width="15.27" height="15.27"/><rect class="cls-1" x="91.67" y="61.13" width="15.27" height="15.27"/><rect class="cls-1" x="91.68" y="45.85" width="15.27" height="15.27"/><rect class="cls-1" x="91.69" y="30.58" width="15.27" height="15.27"/><rect class="cls-1" x="91.7" y="15.31" width="15.27" height="15.27"/><rect class="cls-1" x="76.34" y="152.75" width="15.27" height="15.27"/><rect class="cls-1" x="76.35" y="137.48" width="15.27" height="15.27"/><rect class="cls-1" x="76.36" y="122.21" width="15.27" height="15.27"/><rect class="cls-1" x="76.37" y="106.93" width="15.27" height="15.27"/><rect class="cls-1" x="76.38" y="91.66" width="15.27" height="15.27"/><rect class="cls-1" x="76.39" y="76.39" width="15.27" height="15.27"/><rect class="cls-1" x="76.4" y="61.12" width="15.27" height="15.27"/><rect class="cls-1" x="76.41" y="45.84" width="15.27" height="15.27"/><rect class="cls-1" x="76.42" y="30.57" width="15.27" height="15.27"/><rect class="cls-1" x="76.43" y="15.3" width="15.27" height="15.27"/><rect class="cls-1" x="61.07" y="152.74" width="15.27" height="15.27"/><rect class="cls-1" x="61.08" y="137.47" width="15.27" height="15.27"/><rect class="cls-1" x="61.09" y="122.2" width="15.27" height="15.27"/><rect class="cls-1" x="61.1" y="106.92" width="15.27" height="15.27"/><rect class="cls-1" x="61.11" y="91.65" width="15.27" height="15.27"/><rect class="cls-1" x="61.12" y="76.38" width="15.27" height="15.27"/><rect class="cls-1" x="61.13" y="61.11" width="15.27" height="15.27"/><rect class="cls-1" x="61.14" y="45.83" width="15.27" height="15.27"/><rect class="cls-1" x="61.15" y="30.56" width="15.27" height="15.27"/><rect class="cls-1" x="61.16" y="15.29" width="15.27" height="15.27"/><rect class="cls-1" x="45.79" y="152.73" width="15.27" height="15.27"/><rect class="cls-1" x="45.8" y="137.46" width="15.27" height="15.27"/><rect class="cls-1" x="45.81" y="122.19" width="15.27" height="15.27"/><rect class="cls-1" x="45.82" y="106.91" width="15.27" height="15.27"/><rect class="cls-1" x="45.83" y="91.64" width="15.27" height="15.27"/><rect class="cls-1" x="45.84" y="76.37" width="15.27" height="15.27"/><rect class="cls-1" x="45.85" y="61.1" width="15.27" height="15.27"/><rect class="cls-1" x="45.86" y="45.82" width="15.27" height="15.27"/><rect class="cls-1" x="45.87" y="30.55" width="15.27" height="15.27"/><rect class="cls-1" x="45.89" y="15.28" width="15.27" height="15.27"/><rect class="cls-1" x="30.53" y="137.45" width="15.27" height="15.27"/><rect class="cls-1" x="30.54" y="122.18" width="15.27" height="15.27"/><rect class="cls-1" x="30.55" y="106.9" width="15.27" height="15.27"/><rect class="cls-1" x="30.56" y="91.63" width="15.27" height="15.27"/><rect class="cls-1" x="30.57" y="76.36" width="15.27" height="15.27"/><rect class="cls-1" x="30.58" y="61.09" width="15.27" height="15.27"/><rect class="cls-1" x="30.59" y="45.81" width="15.27" height="15.27"/><rect class="cls-1" x="30.6" y="30.54" width="15.27" height="15.27"/><rect class="cls-1" x="15.26" y="137.44" width="15.27" height="15.27"/><rect class="cls-1" x="15.27" y="122.17" width="15.27" height="15.27"/><rect class="cls-1" x="15.28" y="106.89" width="15.27" height="15.27"/><rect class="cls-1" x="15.29" y="91.62" width="15.27" height="15.27"/><rect class="cls-1" x="15.3" y="76.35" width="15.27" height="15.27"/><rect class="cls-1" x="15.31" y="61.08" width="15.27" height="15.27"/><rect class="cls-1" x="15.32" y="45.8" width="15.27" height="15.27"/><rect class="cls-1" x="15.33" y="30.53" width="15.27" height="15.27"/><rect class="cls-1" x="0.01" y="106.88" width="15.27" height="15.27"/><rect class="cls-1" x="0.02" y="91.61" width="15.27" height="15.27"/><rect class="cls-1" x="0.03" y="76.34" width="15.27" height="15.27"/><rect class="cls-1" x="0.04" y="61.07" width="15.27" height="15.27"/><rect class="cls-2" x="137.47" y="91.7" width="15.27" height="15.27"/><rect class="cls-2" x="137.48" y="76.43" width="15.27" height="15.27"/><rect class="cls-2" x="137.49" y="61.16" width="15.27" height="15.27"/><rect class="cls-2" x="137.5" y="45.89" width="15.27" height="15.27"/><rect class="cls-2" x="122.18" y="122.24" width="15.27" height="15.27"/><rect class="cls-2" x="122.19" y="106.97" width="15.27" height="15.27"/><rect class="cls-2" x="122.2" y="91.69" width="15.27" height="15.27"/><rect class="cls-2" x="122.21" y="76.42" width="15.27" height="15.27"/><rect class="cls-2" x="122.22" y="61.15" width="15.27" height="15.27"/><rect class="cls-2" x="122.23" y="45.87" width="15.27" height="15.27"/><rect class="cls-2" x="122.24" y="30.6" width="15.27" height="15.27"/><rect class="cls-2" x="122.25" y="15.33" width="15.27" height="15.27"/><rect class="cls-2" x="106.9" y="122.23" width="15.27" height="15.27"/><rect class="cls-2" x="106.91" y="106.96" width="15.27" height="15.27"/><rect class="cls-2" x="106.92" y="91.68" width="15.27" height="15.27"/><rect class="cls-3" x="106.93" y="76.41" width="15.27" height="15.27"/><rect class="cls-3" x="106.95" y="61.14" width="15.27" height="15.27"/><rect class="cls-2" x="106.96" y="45.86" width="15.27" height="15.27"/><rect class="cls-2" x="106.97" y="30.59" width="15.27" height="15.27"/><rect class="cls-2" x="106.98" y="15.32" width="15.27" height="15.27"/><rect class="cls-2" x="91.62" y="137.49" width="15.27" height="15.27"/><rect class="cls-2" x="91.63" y="122.22" width="15.27" height="15.27"/><rect class="cls-2" x="91.64" y="106.95" width="15.27" height="15.27"/><rect class="cls-3" x="91.65" y="91.67" width="15.27" height="15.27"/><rect class="cls-3" x="91.66" y="76.4" width="15.27" height="15.27"/><rect class="cls-3" x="91.67" y="61.13" width="15.27" height="15.27"/><rect class="cls-2" x="91.68" y="45.85" width="15.27" height="15.27"/><rect class="cls-2" x="91.69" y="30.58" width="15.27" height="15.27"/><rect class="cls-2" x="91.7" y="15.31" width="15.27" height="15.27"/><rect class="cls-2" x="91.71" y="0.04" width="15.27" height="15.27"/><rect class="cls-2" x="76.35" y="137.48" width="15.27" height="15.27"/><rect class="cls-2" x="76.36" y="122.21" width="15.27" height="15.27"/><rect class="cls-3" x="76.37" y="106.93" width="15.27" height="15.27"/><rect class="cls-3" x="76.38" y="91.66" width="15.27" height="15.27"/><rect class="cls-2" x="76.39" y="76.39" width="15.27" height="15.27"/><rect class="cls-2" x="76.4" y="61.12" width="15.27" height="15.27"/><rect class="cls-2" x="76.41" y="45.84" width="15.27" height="15.27"/><rect class="cls-2" x="76.42" y="30.57" width="15.27" height="15.27"/><rect class="cls-2" x="76.43" y="15.3" width="15.27" height="15.27"/><rect class="cls-2" x="76.44" y="0.03" width="15.27" height="15.27"/><rect class="cls-2" x="61.08" y="137.47" width="15.27" height="15.27"/><rect class="cls-2" x="61.09" y="122.2" width="15.27" height="15.27"/><rect class="cls-2" x="61.1" y="106.92" width="15.27" height="15.27"/><rect class="cls-2" x="61.11" y="91.65" width="15.27" height="15.27"/><rect class="cls-2" x="61.12" y="76.38" width="15.27" height="15.27"/><rect class="cls-2" x="61.13" y="61.11" width="15.27" height="15.27"/><rect class="cls-3" x="61.14" y="45.83" width="15.27" height="15.27"/><rect class="cls-3" x="61.15" y="30.56" width="15.27" height="15.27"/><rect class="cls-2" x="61.16" y="15.29" width="15.27" height="15.27"/><rect class="cls-2" x="61.17" y="0.02" width="15.27" height="15.27"/><rect class="cls-2" x="45.8" y="137.46" width="15.27" height="15.27"/><rect class="cls-2" x="45.81" y="122.19" width="15.27" height="15.27"/><rect class="cls-2" x="45.82" y="106.91" width="15.27" height="15.27"/><rect class="cls-3" x="45.83" y="91.64" width="15.27" height="15.27"/><rect class="cls-3" x="45.84" y="76.37" width="15.27" height="15.27"/><rect class="cls-2" x="45.85" y="61.1" width="15.27" height="15.27"/><rect class="cls-3" x="45.86" y="45.82" width="15.27" height="15.27"/><rect class="cls-3" x="45.87" y="30.55" width="15.27" height="15.27"/><rect class="cls-2" x="45.89" y="15.28" width="15.27" height="15.27"/><rect class="cls-2" x="45.9" y="0.01" width="15.27" height="15.27"/><rect class="cls-2" x="30.54" y="122.18" width="15.27" height="15.27"/><rect class="cls-2" x="30.55" y="106.9" width="15.27" height="15.27"/><rect class="cls-2" x="30.56" y="91.63" width="15.27" height="15.27"/><rect class="cls-3" x="30.57" y="76.36" width="15.27" height="15.27"/><rect class="cls-2" x="30.58" y="61.09" width="15.27" height="15.27"/><rect class="cls-3" x="30.59" y="45.81" width="15.27" height="15.27"/><rect class="cls-2" x="30.6" y="30.54" width="15.27" height="15.27"/><rect class="cls-2" x="30.61" y="15.27" width="15.27" height="15.27"/><rect class="cls-2" x="15.27" y="122.17" width="15.27" height="15.27"/><rect class="cls-2" x="15.28" y="106.89" width="15.27" height="15.27"/><rect class="cls-2" x="15.29" y="91.62" width="15.27" height="15.27"/><rect class="cls-2" x="15.3" y="76.35" width="15.27" height="15.27"/><rect class="cls-2" x="15.31" y="61.08" width="15.27" height="15.27"/><rect class="cls-2" x="15.32" y="45.8" width="15.27" height="15.27"/><rect class="cls-2" x="15.33" y="30.53" width="15.27" height="15.27"/><rect class="cls-2" x="15.34" y="15.26" width="15.27" height="15.27"/><rect class="cls-2" x="0.02" y="91.61" width="15.27" height="15.27"/><rect class="cls-2" x="0.03" y="76.34" width="15.27" height="15.27"/><rect class="cls-2" x="0.04" y="61.07" width="15.27" height="15.27"/><rect class="cls-2" x="0.05" y="45.79" width="15.27" height="15.27"/></g></g></svg>