<svg xmlns="http://www.w3.org/2000/svg" viewBox="0 0 467 514.56"><defs><style>.cls-1{fill:#2e3192;}.cls-2{fill:#e6e6e6;}</style></defs><title>box txt</title><g id="Camada_2" data-name="Camada 2"><g id="Camada_1-2" data-name="Camada 1"><path class="cls-1" d="M467,44.38h0v-.11H452.3V29.57H437.6V14.87H422.91c-211.1,0-167.44-2.12-378,.26H30.17v14.7H15.47V44.38H0V455.66H0v29.45H0v.72H14.72v14H29.45v14.73H44.17c211.29,0,167.57-.26,378.66-.26h14.72V499.57h14.73V485.83H467Z"/><path class="cls-2" d="M467,30.38h0v-.11H452.3V15.57H437.6V.87H422.91c-211.1,0-167.44-2.12-378,.26H30.17v14.7H15.47V30.38H0V441.66H0v29.45H0v.72H14.72v14H29.45v14.73H44.17c211.29,0,167.57-.26,378.66-.26h14.72V485.57h14.73V471.83H467Z"/></g></g></svg>