<svg xmlns="http://www.w3.org/2000/svg" viewBox="0 0 127.77 140.54"><defs><style>.cls-1{fill:#ec008c;}.cls-2{fill:#fff200;}</style></defs><title>btnP_pressed</title><g id="Camada_2" data-name="Camada 2"><g id="Camada_1-2" data-name="Camada 1"><polygon class="cls-1" points="114.99 51.11 114.99 38.33 114.99 25.55 102.22 25.55 89.44 25.55 89.44 12.78 76.66 12.78 63.89 12.78 51.11 12.78 38.33 12.78 38.33 25.55 25.56 25.55 12.78 25.55 12.78 38.33 12.78 51.11 0 51.11 0 63.88 0 76.66 0 89.44 0 102.21 12.78 102.21 12.78 114.99 12.78 127.77 25.56 127.77 38.33 127.77 38.33 140.54 51.11 140.54 63.89 140.54 76.66 140.54 89.44 140.54 89.44 127.77 102.22 127.77 114.99 127.77 114.99 114.99 114.99 102.21 127.77 102.21 127.77 89.44 127.77 76.66 127.77 63.88 127.77 51.11 114.99 51.11"/><polygon class="cls-2" points="114.99 38.33 114.99 25.55 114.99 12.78 102.21 12.78 89.44 12.78 89.44 0 76.66 0 63.88 0 51.11 0 38.33 0 38.33 12.78 25.55 12.78 12.78 12.78 12.78 25.55 12.78 38.33 0 38.33 0 51.11 0 63.88 0 76.66 0 89.44 12.78 89.44 12.78 102.21 12.78 114.99 25.55 114.99 38.33 114.99 38.33 127.77 51.11 127.77 63.88 127.77 76.66 127.77 89.44 127.77 89.44 114.99 102.21 114.99 114.99 114.99 114.99 102.21 114.99 89.44 127.77 89.44 127.77 76.66 127.77 63.88 127.77 51.11 127.77 38.33 114.99 38.33"/></g></g></svg>