<svg xmlns="http://www.w3.org/2000/svg" viewBox="0 0 126.67 126.67"><defs><style>.cls-1{fill:#ffd600;}.cls-2{fill:#502a1b;}.cls-3{fill:#44a8ff;}.cls-4{fill:#2962ff;}</style></defs><title>emoangel</title><g id="Camada_2" data-name="Camada 2"><g id="Emojis"><path class="cls-1" d="M0,39V87.7H9.75v19.49H19.5v9.74H39v9.74H87.7v-9.74h19.49v-9.74h9.74V87.7h9.74V39Zm97.44,9.74v9.75h9.75V78H97.44V68.21H87.7V78H78V58.47H87.7V48.72ZM39,48.72v9.75h9.74V78H39V68.21H29.23V78H19.5V58.47h9.73V48.72Zm0,58.47V97.44H29.23V87.7H39v9.74H87.7V87.7h9.74v9.74H87.7v9.75Z"/><rect class="cls-1" x="19.5" y="9.75" width="87.69" height="9.75"/><polygon class="cls-2" points="97.44 58.47 97.44 48.72 87.7 48.72 87.7 58.47 77.95 58.47 77.95 68.21 77.95 77.95 87.7 77.95 87.7 68.21 97.44 68.21 97.44 77.95 107.19 77.95 107.19 68.21 107.19 58.47 97.44 58.47"/><rect class="cls-2" x="87.7" y="87.7" width="9.74" height="9.74"/><rect class="cls-2" x="38.98" y="97.44" width="48.72" height="9.75"/><rect class="cls-2" x="29.23" y="87.7" width="9.75" height="9.74"/><polygon class="cls-2" points="29.23 68.21 38.98 68.21 38.98 77.95 48.72 77.95 48.72 68.21 48.72 58.47 38.98 58.47 38.98 48.72 29.23 48.72 29.23 58.47 19.5 58.47 19.5 68.21 19.5 77.95 29.23 77.95 29.23 68.21"/><rect class="cls-3" x="9.75" y="19.5" width="107.19" height="9.74"/><rect class="cls-4" x="116.93" y="9.75" width="9.74" height="19.49"/><rect class="cls-4" x="9.75" y="29.23" width="107.19" height="9.75"/><rect class="cls-4" x="9.75" width="107.19" height="9.75"/><rect class="cls-4" y="9.75" width="9.75" height="19.49"/></g></g></svg>