<svg xmlns="http://www.w3.org/2000/svg" viewBox="0 0 126.67 126.67"><defs><style>.cls-1{fill:#ffd600;}.cls-2{fill:#0091ea;}.cls-3{fill:#2962ff;}.cls-4{fill:#502a1b;}</style></defs><title>emocry</title><g id="Camada_2" data-name="Camada 2"><g id="Emojis"><polygon class="cls-1" points="116.92 38.98 116.92 19.5 107.19 19.5 107.19 9.75 87.69 9.75 87.69 0 38.97 0 38.97 9.75 19.49 9.75 19.49 19.5 9.75 19.5 9.75 38.98 0 38.98 0 87.7 9.75 87.7 9.75 107.19 19.49 107.19 19.49 116.93 29.23 116.93 29.23 48.72 19.49 48.72 19.49 38.98 29.23 38.98 29.23 29.23 38.97 29.23 38.97 38.98 29.23 38.98 29.23 48.72 48.72 48.72 48.72 126.67 77.95 126.67 77.95 48.72 97.44 48.72 97.44 38.98 87.69 38.98 87.69 29.23 97.44 29.23 97.44 38.98 107.19 38.98 107.19 48.72 97.44 48.72 97.44 116.93 107.19 116.93 107.19 107.19 116.92 107.19 116.92 87.7 126.67 87.7 126.67 38.98 116.92 38.98"/><rect class="cls-2" x="77.95" y="68.21" width="19.49" height="58.46"/><rect class="cls-2" x="29.23" y="68.21" width="19.49" height="58.46"/><rect class="cls-3" x="77.95" y="58.47" width="19.49" height="9.75"/><rect class="cls-3" x="29.23" y="58.47" width="19.49" height="9.75"/><rect class="cls-4" x="97.44" y="38.98" width="9.75" height="9.74"/><rect class="cls-4" x="87.69" y="29.23" width="9.75" height="9.75"/><rect class="cls-4" x="77.95" y="48.72" width="19.49" height="9.75"/><rect class="cls-4" x="58.47" y="87.7" width="9.74" height="9.74"/><rect class="cls-4" x="29.23" y="48.72" width="19.49" height="9.75"/><rect class="cls-4" x="29.23" y="29.23" width="9.74" height="9.75"/><rect class="cls-4" x="19.49" y="38.98" width="9.75" height="9.74"/></g></g></svg>