<svg xmlns="http://www.w3.org/2000/svg" viewBox="0 0 126.67 126.67"><defs><style>.cls-1{fill:#fafaf7;}.cls-2{fill:#502a1b;}.cls-3{fill:#ffd600;}</style></defs><title>emodead</title><g id="Camada_2" data-name="Camada 2"><g id="Emojis"><rect class="cls-1" x="48.72" y="77.95" width="29.23" height="19.49"/><rect class="cls-2" x="97.44" y="58.47" width="9.75" height="9.75"/><rect class="cls-2" x="97.44" y="38.98" width="9.75" height="9.74"/><rect class="cls-2" x="87.7" y="48.72" width="9.74" height="9.75"/><rect class="cls-2" x="77.95" y="58.47" width="9.75" height="9.75"/><rect class="cls-2" x="77.95" y="38.98" width="9.75" height="9.74"/><rect class="cls-2" x="48.72" y="97.44" width="29.23" height="19.5"/><rect class="cls-2" x="38.98" y="58.47" width="9.74" height="9.75"/><rect class="cls-2" x="38.98" y="38.98" width="9.74" height="9.74"/><rect class="cls-2" x="29.23" y="48.72" width="9.75" height="9.75"/><rect class="cls-2" x="19.5" y="58.47" width="9.74" height="9.75"/><rect class="cls-2" x="19.5" y="38.98" width="9.74" height="9.74"/><path class="cls-3" d="M116.93,39V19.49h-9.74V9.75H87.7V0H39V9.75H19.5v9.74H9.75V39H0V87.7H9.75v19.49H19.5v9.74H39v9.74H87.7v-9.74h19.49v-9.74h9.74V87.7h9.74V39Zm-9.74,9.74H97.44v9.75h9.75v9.74H97.44V58.47H87.7v9.74H78V58.47H87.7V48.72H78V39H87.7v9.74h9.74V39h9.75ZM29.23,39v9.74H39V39h9.74v9.74H39v9.75h9.74v9.74H39V58.47H29.23v9.74H19.5V58.47h9.73V48.72H19.5V39Zm19.49,78V78H78v39Z"/></g></g></svg>