<svg xmlns="http://www.w3.org/2000/svg" viewBox="0 0 146.16 136.42"><defs><style>.cls-1{fill:#f90;}.cls-2{fill:#ffd600;}.cls-3{fill:#0091ea;}.cls-4{fill:#ff1744;}.cls-5{fill:#fafaf7;}</style></defs><title>emofail</title><g id="Camada_2" data-name="Camada 2"><g id="Emojis"><rect class="cls-1" x="136.42" y="48.72" width="9.74" height="38.98"/><rect class="cls-1" x="116.93" y="107.19" width="9.74" height="9.75"/><polygon class="cls-1" points="107.19 87.7 107.19 97.44 126.67 97.44 126.67 107.19 136.42 107.19 136.42 87.7 107.19 87.7"/><polygon class="cls-1" points="97.44 116.93 97.44 136.42 107.19 136.42 107.19 126.67 116.93 126.67 116.93 116.93 97.44 116.93"/><rect class="cls-1" x="97.44" y="97.44" width="9.75" height="9.75"/><rect class="cls-1" x="87.7" y="107.19" width="9.74" height="9.75"/><rect class="cls-1" x="77.95" y="116.93" width="9.75" height="19.49"/><rect class="cls-1" x="58.47" y="116.93" width="9.75" height="19.49"/><rect class="cls-1" x="48.72" y="107.19" width="9.75" height="9.75"/><rect class="cls-1" x="38.98" y="97.44" width="9.74" height="9.75"/><polygon class="cls-1" points="29.23 116.93 29.23 126.67 38.98 126.67 38.98 136.42 48.72 136.42 48.72 116.93 29.23 116.93"/><rect class="cls-1" x="19.5" y="107.19" width="9.74" height="9.75"/><polygon class="cls-1" points="38.98 97.44 38.98 87.7 9.75 87.7 9.75 107.19 19.5 107.19 19.5 97.44 38.98 97.44"/><rect class="cls-1" y="48.72" width="9.75" height="38.98"/><rect class="cls-2" x="126.67" y="77.95" width="9.75" height="9.75"/><polygon class="cls-2" points="107.19 97.44 107.19 107.19 97.44 107.19 97.44 116.93 116.93 116.93 116.93 107.19 126.67 107.19 126.67 97.44 107.19 97.44"/><rect class="cls-2" x="87.7" y="116.93" width="9.74" height="19.49"/><rect class="cls-2" x="77.95" y="107.19" width="9.75" height="9.75"/><rect class="cls-2" x="68.21" y="116.93" width="9.74" height="9.74"/><rect class="cls-2" x="58.47" y="107.19" width="9.75" height="9.75"/><rect class="cls-2" x="48.72" y="116.93" width="9.75" height="19.49"/><polygon class="cls-2" points="48.72 107.19 58.47 107.19 58.47 87.7 68.22 87.7 68.22 77.95 77.95 77.95 77.95 87.7 87.7 87.7 87.7 107.19 97.44 107.19 97.44 97.44 107.19 97.44 107.19 77.95 97.44 77.95 97.44 68.22 87.7 68.22 87.7 58.47 58.47 58.47 58.47 68.22 48.72 68.22 48.72 77.95 38.98 77.95 38.98 97.44 48.72 97.44 48.72 107.19"/><polygon class="cls-2" points="38.98 107.19 38.98 97.44 19.5 97.44 19.5 107.19 29.23 107.19 29.23 116.93 48.72 116.93 48.72 107.19 38.98 107.19"/><rect class="cls-2" x="9.75" y="77.95" width="9.75" height="9.75"/><polygon class="cls-3" points="126.67 38.98 126.67 19.5 116.93 19.5 116.93 9.75 97.44 9.75 97.44 0 48.72 0 48.72 9.75 29.23 9.75 29.23 19.5 19.5 19.5 19.5 38.98 9.75 38.98 9.75 58.47 19.5 58.47 19.5 48.72 29.23 48.72 29.23 38.98 38.98 38.98 38.98 29.23 58.47 29.23 58.47 38.98 68.22 38.98 68.22 48.72 68.22 58.47 77.95 58.47 77.95 48.72 77.95 38.98 87.7 38.98 87.7 29.23 107.19 29.23 107.19 38.98 116.93 38.98 116.93 48.72 126.67 48.72 126.67 58.47 136.42 58.47 136.42 38.98 126.67 38.98"/><polygon class="cls-4" points="77.95 87.7 77.95 77.95 68.22 77.95 68.22 87.7 58.47 87.7 58.47 107.19 68.22 107.19 68.22 116.93 77.95 116.93 77.95 107.19 87.7 107.19 87.7 87.7 77.95 87.7"/><polygon class="cls-5" points="116.93 58.47 116.93 48.72 107.19 48.72 107.19 38.98 87.7 38.98 87.7 58.47 97.44 58.47 97.44 68.22 107.19 68.22 107.19 77.95 126.67 77.95 126.67 58.47 116.93 58.47"/><polygon class="cls-5" points="38.98 38.98 38.98 48.72 29.23 48.72 29.23 58.47 19.5 58.47 19.5 77.95 38.98 77.95 38.98 68.22 48.72 68.22 48.72 58.47 58.47 58.47 58.47 38.98 38.98 38.98"/><rect x="126.67" y="58.47" width="9.75" height="19.49"/><rect x="116.93" y="48.72" width="9.74" height="9.75"/><rect x="107.19" y="77.95" width="19.49" height="9.75"/><rect x="107.19" y="38.98" width="9.75" height="9.74"/><rect x="97.44" y="68.21" width="9.75" height="9.74"/><rect x="87.7" y="29.23" width="19.49" height="9.75"/><rect x="87.7" y="58.47" width="9.74" height="9.75"/><rect x="77.95" y="38.98" width="9.75" height="19.49"/><rect x="58.47" y="38.98" width="9.75" height="19.49"/><rect x="48.72" y="58.47" width="9.75" height="9.75"/><rect x="38.98" y="29.23" width="19.49" height="9.75"/><rect x="38.98" y="68.21" width="9.74" height="9.74"/><rect x="29.23" y="38.98" width="9.75" height="9.74"/><rect x="19.5" y="77.95" width="19.49" height="9.75"/><rect x="19.5" y="48.72" width="9.74" height="9.75"/><rect x="9.75" y="58.47" width="9.75" height="19.49"/></g></g></svg>