<svg xmlns="http://www.w3.org/2000/svg" viewBox="0 0 126.67 126.67"><defs><style>.cls-1{fill:#ffd600;}.cls-2{fill:#502a1b;}.cls-3{fill:#fff;}</style></defs><title>emosucess</title><g id="Camada_2" data-name="Camada 2"><g id="Emojis"><polygon class="cls-1" points="116.92 48.72 116.92 68.2 107.18 68.2 107.18 77.95 77.95 77.95 77.95 68.2 68.2 68.2 68.2 58.46 58.46 58.46 58.46 68.2 48.72 68.2 48.72 77.95 19.49 77.95 19.49 68.2 9.74 68.2 9.74 48.72 0 48.72 0 87.69 9.74 87.69 9.74 107.18 19.49 107.18 19.49 116.92 38.97 116.92 38.97 126.67 87.69 126.67 87.69 116.92 107.18 116.92 107.18 107.18 116.92 107.18 116.92 87.69 126.67 87.69 126.67 48.72 116.92 48.72"/><polygon class="cls-1" points="116.92 38.97 116.92 19.49 107.18 19.49 107.18 9.74 87.69 9.74 87.69 0 38.97 0 38.97 9.74 19.49 9.74 19.49 19.49 9.74 19.49 9.74 38.97 116.92 38.97"/><rect class="cls-2" x="87.69" y="87.69" width="9.75" height="9.75"/><rect class="cls-2" x="48.72" y="97.44" width="38.97" height="9.74"/><polygon points="0 38.97 0 48.72 9.74 48.72 9.74 68.2 19.49 68.2 19.49 48.72 38.97 48.72 38.97 58.46 29.23 58.46 29.23 68.2 19.49 68.2 19.49 77.95 48.72 77.95 48.72 68.2 58.46 68.2 58.46 58.46 68.2 58.46 68.2 68.2 77.95 68.2 77.95 48.72 97.44 48.72 97.44 58.46 87.69 58.46 87.69 68.2 77.95 68.2 77.95 77.95 107.18 77.95 107.18 68.2 116.92 68.2 116.92 48.72 126.67 48.72 126.67 38.97 0 38.97"/><polygon class="cls-3" points="77.95 48.72 77.95 68.2 87.69 68.2 87.69 58.46 97.44 58.46 97.44 48.72 77.95 48.72"/><polygon class="cls-3" points="19.49 48.72 19.49 68.2 29.23 68.2 29.23 58.46 38.97 58.46 38.97 48.72 19.49 48.72"/></g></g></svg>