<svg xmlns="http://www.w3.org/2000/svg" viewBox="0 0 126.67 126.67"><defs><style>.cls-1{fill:#ffd600;}.cls-2{fill:#502a1b;}.cls-3{fill:#ff689b;}</style></defs><title>emosmile</title><g id="Camada_2" data-name="Camada 2"><g id="Emojis"><polygon class="cls-1" points="116.93 38.98 116.93 19.5 107.19 19.5 107.19 9.75 87.7 9.75 87.7 0 38.98 0 38.98 9.75 19.5 9.75 19.5 19.5 9.75 19.5 9.75 38.98 0 38.98 0 87.7 9.75 87.7 9.75 107.19 19.5 107.19 19.5 116.93 38.98 116.93 38.98 126.67 87.7 126.67 87.7 116.93 107.19 116.93 107.19 107.19 116.93 107.19 116.93 87.7 126.67 87.7 126.67 38.98 116.93 38.98"/><rect class="cls-2" x="87.7" y="77.95" width="9.74" height="9.75"/><rect class="cls-2" x="87.7" y="38.98" width="9.74" height="9.74"/><rect class="cls-2" x="77.95" y="29.23" width="9.75" height="9.75"/><rect class="cls-2" x="38.98" y="87.7" width="48.72" height="9.74"/><rect class="cls-2" x="68.21" y="38.98" width="9.74" height="9.74"/><rect class="cls-2" x="48.72" y="38.98" width="9.75" height="9.74"/><rect class="cls-2" x="38.98" y="29.23" width="9.74" height="9.75"/><rect class="cls-2" x="29.23" y="77.95" width="9.75" height="9.75"/><rect class="cls-2" x="29.23" y="38.98" width="9.75" height="9.74"/><rect class="cls-3" x="97.44" y="58.47" width="19.5" height="19.49"/><rect class="cls-3" x="9.75" y="58.47" width="19.49" height="19.49"/></g></g></svg>