<svg xmlns="http://www.w3.org/2000/svg" viewBox="0 0 126.67 126.67"><defs><style>.cls-1{fill:#ffd600;}.cls-2{fill:#502a1b;}.cls-3{fill:#1a237e;}.cls-4{fill:#0091ea;}</style></defs><title>emovacation</title><g id="Camada_2" data-name="Camada 2"><g id="Emojis"><polygon class="cls-1" points="116.93 48.72 116.93 68.21 107.19 68.21 107.19 77.95 77.95 77.95 77.95 68.21 68.22 68.21 68.22 58.47 58.47 58.47 58.47 68.21 48.72 68.21 48.72 77.95 19.5 77.95 19.5 68.21 9.75 68.21 9.75 48.72 0 48.72 0 87.7 9.75 87.7 9.75 107.19 19.5 107.19 19.5 116.93 38.98 116.93 38.98 126.67 87.7 126.67 87.7 116.93 107.19 116.93 107.19 107.19 116.93 107.19 116.93 87.7 126.67 87.7 126.67 48.72 116.93 48.72"/><polygon class="cls-1" points="116.93 38.98 116.93 19.5 107.19 19.5 107.19 9.75 87.7 9.75 87.7 0 38.98 0 38.98 9.75 19.5 9.75 19.5 19.5 9.75 19.5 9.75 38.98 116.93 38.98"/><rect class="cls-2" x="87.7" y="87.7" width="9.74" height="9.74"/><rect class="cls-2" x="38.98" y="97.44" width="48.72" height="9.75"/><rect class="cls-2" x="29.23" y="87.7" width="9.75" height="9.74"/><polygon class="cls-3" points="0 38.98 0 48.72 9.75 48.72 9.75 68.21 19.5 68.21 19.5 48.72 38.98 48.72 38.98 58.47 29.23 58.47 29.23 68.21 19.5 68.21 19.5 77.95 48.72 77.95 48.72 68.21 58.47 68.21 58.47 58.47 68.22 58.47 68.22 68.21 77.95 68.21 77.95 48.72 97.44 48.72 97.44 58.47 87.7 58.47 87.7 68.21 77.95 68.21 77.95 77.95 107.19 77.95 107.19 68.21 116.93 68.21 116.93 48.72 126.67 48.72 126.67 38.98 0 38.98"/><polygon class="cls-4" points="77.95 48.72 77.95 68.21 87.7 68.21 87.7 58.47 97.44 58.47 97.44 48.72 77.95 48.72"/><polygon class="cls-4" points="19.5 48.72 19.5 68.21 29.23 68.21 29.23 58.47 38.98 58.47 38.98 48.72 19.5 48.72"/></g></g></svg>