<svg height="512pt" viewBox="0 -21 512 512" width="512pt" xmlns="http://www.w3.org/2000/svg"><path d="m214.359375 44.808594v306.132812c0 21.851563-17.882813 40.15625-39.726563 39.746094-21.179687-.398438-38.226562-17.695312-38.226562-38.964844v-306.914062c0-5.6875 4.613281-10.300782 10.300781-10.300782h57.351563c5.6875 0 10.300781 4.613282 10.300781 10.300782zm0 0" fill="#a0ecff"/><path d="m214.359375 44.808594v306.128906c0 21.851562-17.882813 40.15625-39.722656 39.746094-4.648438-.082032-9.085938-.980469-13.199219-2.554688 14.785156-5.730468 25.3125-20.417968 25.3125-37.191406v-306.128906c0-5.6875-4.605469-10.300782-10.300781-10.300782h27.609375c5.6875 0 10.300781 4.617188 10.300781 10.300782zm0 0" fill="#60daff"/><path d="m214.359375 203.964844v147.757812c0 21.519532-17.449219 38.972656-38.980469 38.972656-4.90625 0-9.601562-.910156-13.929687-2.578124-14.648438-5.59375-25.042969-19.777344-25.042969-36.394532v-147.757812zm0 0" fill="#f55"/><path d="m214.359375 203.964844v147.757812c0 21.519532-17.449219 38.972656-38.980469 38.972656-4.90625 0-9.601562-.910156-13.929687-2.578124 14.773437-5.726563 25.300781-20.40625 25.300781-37.175782v-146.976562zm0 0" fill="#f72b2b"/><g fill="#d9efec"><path d="m164.988281 331.640625c-.019531 0-.042969 0-.066406 0h-.113281c-4.269532-.039063-7.695313-3.527344-7.660156-7.792969.039062-4.246094 3.492187-7.660156 7.726562-7.660156h.070312l.113282.003906c4.265625.035156 7.695312 3.527344 7.65625 7.792969-.039063 4.242187-3.488282 7.65625-7.726563 7.65625zm0 0"/><path d="m164.988281 292.957031c-.011719 0-.019531 0-.035156 0h-.109375c-4.269531-.019531-7.710938-3.496093-7.695312-7.761719.019531-4.253906 3.476562-7.691406 7.726562-7.691406h.035156.113282c4.265624.019532 7.710937 3.492188 7.691406 7.761719-.019532 4.253906-3.476563 7.691406-7.726563 7.691406zm0 0"/><path d="m164.988281 254.273438c-.019531 0-.042969 0-.066406 0l-.113281-.003907c-4.269532-.035156-7.695313-3.527343-7.660156-7.792969.039062-4.242187 3.492187-7.65625 7.726562-7.65625h.070312.113282c4.265625.039063 7.695312 3.527344 7.65625 7.792969-.039063 4.246094-3.488282 7.660157-7.726563 7.660157zm0 0"/></g><path d="m155.515625 24.195312v37.890626c0 5.28125 3.984375 9.566406 8.902344 9.566406h21.929687c4.914063 0 8.902344-4.285156 8.902344-9.566406v-37.890626zm0 0" fill="#97bfb8"/><path d="m224.316406 34.511719h-97.867187c-5.691407 0-10.300781-4.613281-10.300781-10.300781v-13.910157c0-5.6875 4.609374-10.300781 10.300781-10.300781h97.867187c5.691406 0 10.300782 4.613281 10.300782 10.300781v13.910157c0 5.6875-4.613282 10.300781-10.300782 10.300781zm0 0" fill="#d9efec"/><path d="m375.597656 44.808594v306.132812c0 21.851563-17.882812 40.15625-39.730468 39.746094-21.175782-.398438-38.226563-17.695312-38.226563-38.964844v-306.914062c0-5.6875 4.613281-10.300782 10.304687-10.300782h57.347657c5.691406 0 10.304687 4.613282 10.304687 10.300782zm0 0" fill="#a0ecff"/><path d="m375.597656 44.808594v306.128906c0 21.851562-17.886718 40.15625-39.726562 39.746094-4.644532-.082032-9.085938-.980469-13.195313-2.554688 14.78125-5.730468 25.308594-20.417968 25.308594-37.191406v-306.128906c0-5.6875-4.601563-10.300782-10.300781-10.300782h27.609375c5.6875 0 10.304687 4.617188 10.304687 10.300782zm0 0" fill="#60daff"/><path d="m375.597656 203.964844v147.757812c0 21.519532-17.453125 38.972656-38.984375 38.972656-4.902343 0-9.601562-.910156-13.925781-2.578124-14.652344-5.59375-25.046875-19.777344-25.046875-36.394532v-147.757812zm0 0" fill="#f72b2b"/><path d="m375.597656 203.964844v147.757812c0 21.519532-17.453125 38.972656-38.984375 38.972656-4.902343 0-9.601562-.910156-13.925781-2.578124 14.773438-5.726563 25.300781-20.40625 25.300781-37.175782v-146.976562zm0 0" fill="#d61b1f"/><path d="m326.226562 331.640625c-.023437 0-.046874 0-.070312 0h-.113281c-4.269531-.039063-7.695313-3.527344-7.65625-7.792969.035156-4.246094 3.488281-7.660156 7.722656-7.660156h.070313l.113281.003906c4.265625.035156 7.695312 3.527344 7.65625 7.792969-.039063 4.242187-3.488281 7.65625-7.722657 7.65625zm0 0" fill="#d9efec"/><path d="m326.226562 292.957031c-.011718 0-.023437 0-.035156 0h-.113281c-4.269531-.019531-7.710937-3.496093-7.691406-7.761719.015625-4.253906 3.472656-7.691406 7.722656-7.691406h.035156.113281c4.269532.019532 7.710938 3.492188 7.691407 7.761719-.015625 4.253906-3.472657 7.691406-7.722657 7.691406zm0 0" fill="#d9efec"/><path d="m326.226562 254.273438c-.023437 0-.046874 0-.070312 0l-.113281-.003907c-4.269531-.035156-7.695313-3.527343-7.65625-7.792969.035156-4.242187 3.488281-7.65625 7.722656-7.65625h.070313.113281c4.265625.039063 7.695312 3.527344 7.65625 7.792969-.039063 4.246094-3.488281 7.660157-7.722657 7.660157zm0 0" fill="#d9efec"/><path d="m316.753906 24.195312v37.890626c0 5.28125 3.984375 9.566406 8.898438 9.566406h21.929687c4.917969 0 8.902344-4.285156 8.902344-9.566406v-37.890626zm0 0" fill="#97bfb8"/><path d="m385.550781 34.511719h-97.867187c-5.6875 0-10.300782-4.613281-10.300782-10.300781v-13.910157c0-5.6875 4.613282-10.300781 10.300782-10.300781h97.867187c5.691407 0 10.304688 4.613281 10.304688 10.300781v13.910157c-.003907 5.6875-4.613281 10.300781-10.304688 10.300781zm0 0" fill="#d9efec"/><path d="m42.136719 156.035156h38.144531v282.273438h-38.144531zm0 0" fill="#a46243"/><path d="m61.207031 156.035156h19.074219v282.273438h-19.074219zm0 0" fill="#8c482b"/><path d="m431.71875 156.035156h38.144531v282.273438h-38.144531zm0 0" fill="#a46243"/><path d="m455.007812 156.035156h14.855469v282.273438h-14.855469zm0 0" fill="#8c482b"/><path d="m481.636719 174.246094h-451.273438c-5.6875 0-10.300781-4.613282-10.300781-10.300782v-27.613281c0-5.691406 4.613281-10.304687 10.300781-10.304687h451.273438c5.6875 0 10.300781 4.613281 10.300781 10.304687v27.613281c0 5.6875-4.613281 10.300782-10.300781 10.300782zm0 0" fill="#e78e6f"/><path d="m501.699219 469.839844h-491.398438c-5.6875 0-10.300781-4.613282-10.300781-10.304688v-18.511718c0-5.691407 4.613281-10.304688 10.300781-10.304688h491.398438c5.6875 0 10.300781 4.613281 10.300781 10.304688v18.511718c0 5.691406-4.613281 10.304688-10.300781 10.304688zm0 0" fill="#c87c5b"/></svg>