<svg height="512pt" viewBox="-17 0 512 512" width="512pt" xmlns="http://www.w3.org/2000/svg"><path d="m469.777344 149.910156v150.199219c-11.519532-8.4375-31.648438-19.03125-60.167969-19.03125-6.582031 0-13.371094.570313-20.191406 1.703125-40.5 6.71875-66.707031 41.179688-92.058594 74.507812-22.5 29.601563-43.761719 57.5625-70.082031 57.5625-28.957032 0-43.917969-16.800781-61.226563-36.25-17.070312-19.179687-36.421875-40.921874-70.132812-40.921874-41.527344 0-67.269531 19.460937-81.558594 35.789062-2.550781 2.921875-4.832031 5.832031-6.859375 8.660156v-111.007812s49.039062-91.371094 120.140625-71.269532c50 14.136719 51.75 64.226563 107 64.226563 63.789063 0 48.878906-119.707031 224.898437-124.167969 5.609376-.140625 10.238282 4.378906 10.238282 10zm0 0" fill="#00d2f9"/><path d="m469.777344 288.109375v33.011719c0-2.820313-1.179688-5.5-3.257813-7.390625-8.480469-7.742188-33.449219-25.980469-74.652343-19.152344-70.527344 11.691406-98.289063 132.273437-164.589844 132.273437-68.199219 0-74.769532-77.171874-131.359375-77.171874-69.5 0-88.417969 61.339843-88.417969 61.339843v-40.890625c2.027344-2.828125 4.308594-5.738281 6.859375-8.660156 14.289063-16.328125 40.03125-35.789062 81.558594-35.789062 33.710937 0 53.0625 21.742187 70.132812 40.921874 17.308594 19.449219 32.269531 36.25 61.226563 36.25 26.320312 0 47.582031-27.960937 70.082031-57.5625 25.351563-33.328124 51.558594-67.789062 92.058594-74.507812 6.820312-1.132812 13.609375-1.703125 20.191406-1.703125 28.519531 0 48.648437 10.59375 60.167969 19.03125zm0 0" fill="#00abef"/><path d="m469.777344 312.121094v70.050781c0-2.582031-.988282-5.0625-2.769532-6.921875-14.320312-14.96875-32.296874-25.570312-54.46875-25.570312-75.328124 0-103.578124 132.269531-173.441406 132.269531-71.867187 0-84.148437-77.167969-143.777344-77.167969-73.242187 0-87.820312 61.339844-87.820312 61.339844v-64.101563s18.917969-61.339843 88.417969-61.339843c56.589843 0 63.160156 77.171874 131.359375 77.171874 66.300781 0 94.0625-120.582031 164.589844-132.273437 41.203124-6.828125 66.171874 11.410156 74.652343 19.152344 2.078125 1.890625 3.257813 4.570312 3.257813 7.390625zm0 0" fill="#ff6672"/><path d="m469.777344 373.171875v131.328125h-462.277344v-47.378906s14.578125-61.339844 87.820312-61.339844c59.628907 0 71.910157 77.167969 143.777344 77.167969 69.863282 0 98.113282-132.269531 173.441406-132.269531 22.175782 0 40.148438 10.601562 54.46875 25.566406 1.78125 1.863281 2.769532 4.347656 2.769532 6.925781zm0 0" fill="#f92f41"/><path d="m469.777344 512h-462.277344c-4.140625 0-7.5-3.359375-7.5-7.5v-497c0-4.140625 3.359375-7.5 7.5-7.5h18.5c4.140625 0 7.5 3.359375 7.5 7.5s-3.359375 7.5-7.5 7.5h-11v482h447.277344v-11c0-4.140625 3.355468-7.5 7.5-7.5 4.144531 0 7.5 3.359375 7.5 7.5v18.5c0 4.140625-3.355469 7.5-7.5 7.5zm0 0" fill="#acacac"/><path d="m402.296875 319.5c-4.140625 0-7.5-3.359375-7.5-7.5v-208c0-4.140625 3.359375-7.5 7.5-7.5 4.144531 0 7.5 3.359375 7.5 7.5v208c0 4.140625-3.355469 7.5-7.5 7.5zm0 0" fill="#e7e7e7"/><path d="m438.652344 68.179688c0 20.078124-16.277344 36.351562-36.355469 36.351562s-36.351563-16.273438-36.351563-36.351562c0-20.078126 16.273438-36.355469 36.351563-36.355469s36.355469 16.277343 36.355469 36.355469zm0 0" fill="#ff6672"/><path d="m438.652344 68.179688c0 20.078124-16.273438 36.351562-36.347656 36.351562-4.023438 0-7.894532-.652344-11.507813-1.859375 14.433594-4.808594 24.84375-18.4375 24.84375-34.492187 0-16.054688-10.410156-29.679688-24.84375-34.5 3.613281-1.203126 7.484375-1.855469 11.503906-1.855469 20.078125-.003907 36.351563 16.277343 36.351563 36.355469zm0 0" fill="#f92f41"/><path d="m108.640625 237.5c-4.144531 0-7.5-3.359375-7.5-7.5v-67.644531c0-4.140625 3.355469-7.5 7.5-7.5 4.140625 0 7.5 3.359375 7.5 7.5v67.644531c0 4.140625-3.359375 7.5-7.5 7.5zm0 0" fill="#e7e7e7"/><path d="m144.992188 127.5c0 20.078125-16.277344 36.355469-36.351563 36.355469-20.078125 0-36.355469-16.277344-36.355469-36.355469s16.277344-36.355469 36.355469-36.355469c20.074219 0 36.351563 16.277344 36.351563 36.355469zm0 0" fill="#00d2f9"/><path d="m144.992188 127.5c0 20.078125-16.269532 36.351562-36.347657 36.351562-4.023437 0-7.890625-.652343-11.507812-1.859374 14.433593-4.808594 24.84375-18.4375 24.84375-34.492188s-10.410157-29.679688-24.84375-34.5c3.617187-1.203125 7.484375-1.855469 11.507812-1.855469 20.074219-.003906 36.347657 16.28125 36.347657 36.355469zm0 0" fill="#00abef"/></svg>