<svg xmlns="http://www.w3.org/2000/svg" viewBox="0 0 696.93 1033.22"><defs><style>.cls-1{fill:#42210b;}.cls-2{fill:#fff200;}.cls-3{fill:#603813;}.cls-4{fill:#eeebf6;}.cls-5{fill:#fff;}.cls-6{fill:#e5bf2b;}.cls-7{fill:#f6ce23;}.cls-8{fill:#f9ed9d;}.cls-9{fill:#d4b331;}.cls-10{fill:#df871e;}.cls-11{fill:#f9c09a;}.cls-12{fill:#2e3192;}.cls-13{fill:#f1937b;}.cls-14{fill:#15144a;}.cls-15{fill:gray;}.cls-16{fill:#cec4e5;}.cls-17{fill:#c1e7f4;fill-opacity:0.5;stroke:#42210b;stroke-miterlimit:10;stroke-width:13px;}</style></defs><title>Ativo 3</title><g id="Camada_2" data-name="Camada 2"><g id="Camada_1-2" data-name="Camada 1"><circle class="cls-1" cx="511.77" cy="60.19" r="60.19"/><circle class="cls-2" cx="498.27" cy="69.04" r="50.99"/><path class="cls-3" d="M555.57,123.11c16.1,36.72,19,81.62,16.88,124.34-1.89,37.41-9,78.15-31.24,100-12,11.84-27,16.52-41.57,19.76a279.92,279.92,0,0,1-96.13,4.45c-25.45-3.25-51.33-10.37-72.92-29.12-36.89-32-55.76-96.82-48.48-155.82S320.86,76.6,360.72,52.15s86.9-23.26,127.61-1.59A150.17,150.17,0,0,1,555.57,123.11Z"/><path class="cls-4" d="M671.12,658.6a164.68,164.68,0,0,1-59.6,110.56c-12.58,10.18-28.17,18.79-44.18,16.45-13.83-2-25.47-12.11-32.57-24.14s-10.31-25.93-13-39.65c-18.21-94.34-9.9-193.21,10-287.21,28.83,26.35,45.75,63.69,54.07,101.85S594.6,614,595,653c8.39-21.2,20.82-42.07,36.49-58.64C655.18,606.2,673.72,632.23,671.12,658.6Z"/><path class="cls-4" d="M618.83,570.42c-11.11,19-20.08,39.6-23.21,61.39s0,45,11.58,63.68,32.26,32.32,54.27,32.57c34.41-36.43,37.74-98,10.66-140.22-5.73-8.93-13-17.27-22.64-21.77S624.19,561.25,618.83,570.42Z"/><path class="cls-5" d="M272.94,596.77a178.14,178.14,0,0,1-38.65,26.82c-.41-.76-.8-1.53-1.19-2.29a50,50,0,0,1-22.44,21.52c-16.31,7.71-36.26,6.22-52.09-2.45a65.73,65.73,0,0,1-12.15-8.63,514.32,514.32,0,0,0,23.46,57.89c5.19,10.87,11.23,22.08,21.44,28.47,18.18,11.36,42.09,3.44,60.7-7.19,6-3.42,11.86-7.12,17.55-11,7.16-27.65,13.69-55.92,17.84-82.91A90.64,90.64,0,0,1,272.94,596.77Z"/><path class="cls-4" d="M210.66,642.82A50,50,0,0,0,233.1,621.3c-18.17-35.22-27.46-74.39-28.51-114a501.76,501.76,0,0,0-80.9,26.12,517.52,517.52,0,0,0,22.73,98.35,65.73,65.73,0,0,0,12.15,8.63C174.4,649,194.35,650.53,210.66,642.82Z"/><path class="cls-4" d="M329.13,438.09c-10.65,11.06-15.12,26.74-16.6,42s-.38,30.71-1.73,46c-2.48,28-17.56,51.94-37.86,70.66A90.64,90.64,0,0,0,287.41,617c-4.15,27-10.68,55.26-17.84,82.91a243.41,243.41,0,0,0,67.95-71.2l42.55-202.85C366.78,418.12,339.77,427,329.13,438.09Z"/><path class="cls-4" d="M148.38,554.45c18.27-2.81,34.37-14.12,46.5-28.07a154.32,154.32,0,0,0,15-20.88c-.17-2.18-.35-4.36-.58-6.53a43.56,43.56,0,0,0-58.16-36.39A161.16,161.16,0,0,0,113.88,482c2.25,17.37,0,35.06,1.86,52.48a79.93,79.93,0,0,0,3.44,16.18A53.19,53.19,0,0,0,148.38,554.45Z"/><path class="cls-5" d="M194.88,526.38c-12.13,14-28.23,25.26-46.5,28.07a53.19,53.19,0,0,1-29.2-3.81c3.83,11.67,10.65,22.15,21.34,27.76,10.07,5.29,22.11,5.46,33.32,3.54a98.71,98.71,0,0,0,33.89-12.48c2.73-21.33,3.81-42.79,2.18-64A154.32,154.32,0,0,1,194.88,526.38Z"/><rect class="cls-6" x="-59.34" y="232.26" width="142.67" height="23.99" transform="translate(-232.26 256.25) rotate(-90)"/><rect class="cls-6" x="23.67" y="315.59" width="23.99" height="23.99" transform="translate(-291.91 363.25) rotate(-90)"/><rect class="cls-6" x="47.66" y="339.58" width="23.99" height="23.99" transform="translate(-291.91 411.23) rotate(-90)"/><rect class="cls-6" x="60.95" y="183.3" width="44.77" height="23.99" transform="translate(-111.97 278.63) rotate(-90)"/><rect class="cls-6" y="172.91" width="71.34" height="23.99"/><rect class="cls-6" x="240.67" y="232.26" width="142.67" height="23.99" transform="translate(67.75 556.26) rotate(-90)"/><rect class="cls-6" x="276.34" y="315.59" width="23.99" height="23.99" transform="translate(-39.25 615.91) rotate(-90)"/><rect class="cls-6" x="252.35" y="339.58" width="23.99" height="23.99" transform="translate(-87.23 615.91) rotate(-90)"/><rect class="cls-6" x="218.29" y="183.3" width="44.77" height="23.99" transform="translate(45.37 435.97) rotate(-90)"/><rect class="cls-6" x="252.66" y="172.91" width="71.34" height="23.99" transform="translate(576.66 369.82) rotate(180)"/><rect class="cls-7" x="71.65" y="217.68" width="181.17" height="145.89"/><rect class="cls-8" x="95.33" y="217.68" width="18.13" height="72.94"/><rect class="cls-8" x="95.33" y="309.64" width="18.13" height="18.13"/><rect class="cls-7" x="90.39" y="363.57" width="142.67" height="23.99"/><rect class="cls-7" x="111.66" y="387.56" width="100.13" height="23.99"/><rect class="cls-6" x="129.86" y="411.55" width="64.77" height="20.53"/><rect class="cls-6" x="129.86" y="500.11" width="64.77" height="20.53"/><rect class="cls-9" x="88.73" y="520.65" width="147.02" height="20.53"/><rect class="cls-10" x="151.44" y="432.08" width="21.61" height="68.03"/><rect class="cls-6" x="129.86" y="453.3" width="64.77" height="20.53"/><path class="cls-11" d="M186.8,415.33c-4.07,5.94-7.18,12.81-7.21,20s3.52,14.7,9.95,17.91c9.15,4.57,20.28-.69,27.75-7.68,6.27-5.89,11.47-13.41,12.63-21.93s-2.52-18-10.17-22C208.17,395.74,194.15,404.59,186.8,415.33Z"/><path class="cls-11" d="M100.91,392.8c5-11.89,19.41-16.33,32.16-18.44,9.75-1.61,20.33-2.56,29,2.16,12.22,6.62,16.47,21.85,18.73,35.57A351.34,351.34,0,0,1,185.51,465c.14,10.3-.27,21-4.91,30.2-7.55,15-24.25,22.5-39.71,28.94-5.1,2.12-10.83,4.26-16,2.26-7.06-2.73-9.2-11.49-10.36-19q-7.17-46-14.32-92C99.05,407.91,97.92,399.86,100.91,392.8Z"/><path class="cls-5" d="M380.07,718.16l53.8-297.06c-20.31,1.32-41,2.36-60.26.18-14.33-1.62-28.39,6.41-37.74,17.39S321,463.33,315.71,476.73q-12.13,30.5-24.26,61c-3.88,9.74-7.82,20-6.66,30.39,1.76,15.84,14.63,27.82,26.66,38.27-37.09,128.89-70.15,293.34-83.08,426.83H352.82C351,932.64,365.07,806.8,380.07,718.16Z"/><path class="cls-5" d="M553.4,511.61c1.24-20.64,2.5-42.72-8-60.54-15.19-25.78-49.28-33.1-79.18-31.9-2.63.1-5.28.23-8,.37-20.35,105.09-46.66,209.07-62,315-14.32,99-18.79,200.8.18,298.68H596.71C557.68,864.09,543.05,684.88,553.4,511.61Z"/><path class="cls-4" d="M396.3,734.54c15.32-105.93,41.63-209.91,62-315-8,.44-16.18,1-24.41,1.56l-53.8,297.06c-15,88.64-29.09,214.48-27.25,315.06h43.66C377.51,935.34,382,833.52,396.3,734.54Z"/><path class="cls-4" d="M380.07,718.16c2.09-75.32-12.19-163.3-41.23-232.83,10-11.79,19.77-23.74,29.79-35.53-8.71,3.3-19.23,6.41-27.93,9.71,16.26-46.8,54.47-85.44,101.09-102.22,25.41,7.24,49.57,22.9,65.55,43.94A124.18,124.18,0,0,1,532.42,475a103.64,103.64,0,0,0-34.14-18.56c8.26,12.09,13.36,24.89,21.62,37C476,616.06,426.85,657.36,380.07,718.16Z"/><path class="cls-12" d="M392.1,455.45c0,61.95-4,226-12,262.71,0,0,97.38-198.49,97.38-307.47L417.93,422Z"/><path class="cls-11" d="M406.82,376.6a246.47,246.47,0,0,1-9.1,48.85c-4.44,15.11-9.91,32.9-.26,45.35,8.39,10.82,24.92,11.81,37.65,6.78,20.9-8.25,34.75-29.2,39.87-51.08,4.23-18.08,3.35-36.86,1-55.38a90.58,90.58,0,0,1-69.19,5.48Z"/><path class="cls-13" d="M468,292.58c-21.44-.42-46.53.13-67.85,2.42a248,248,0,0,1,6.68,81.6A90.58,90.58,0,0,0,476,371.12c-.49-3.87-1-7.74-1.62-11.58C471.05,337.32,466.72,315,468,292.58Z"/><path class="cls-11" d="M463.61,180.57c-29.4-14.27-50.84-43.85-55.24-76.24-1.27,20.75-11.83,38.52-28,51.57-11.75,9.48-26.1,15.21-38.3,24.12a62.66,62.66,0,0,0-12,11.35v58.26a96.75,96.75,0,0,0,96.76,96.75h0a96.75,96.75,0,0,0,96.75-96.75V209.54A69,69,0,0,0,505.17,197C491.73,190.51,477,187.07,463.61,180.57Z"/><path class="cls-11" d="M628.13,565.81c4.06,5.94,7.18,12.81,7.21,20s-3.52,14.69-10,17.91c-9.15,4.57-20.27-.69-27.74-7.68-6.27-5.89-11.47-13.41-12.63-21.94s2.51-18,10.17-22C606.76,546.21,620.78,555.07,628.13,565.81Z"/><rect class="cls-14" x="432.12" y="510.56" width="273.62" height="182.41" rx="15" transform="translate(-110.92 1074.65) rotate(-81.43)"/><path class="cls-11" d="M695,565.93c-5-11.9-19.41-16.34-32.16-18.44-9.76-1.62-20.33-2.57-29,2.15-12.22,6.62-16.47,21.85-18.74,35.57a354.08,354.08,0,0,0-4.68,52.92c-.13,10.3.28,21,4.92,30.2,7.54,14.95,24.24,22.5,39.71,28.94,5.1,2.12,10.83,4.26,16,2.27,7.06-2.73,9.2-11.49,10.36-19q7.17-46,14.32-92C696.88,581,698,573,695,565.93Z"/><rect class="cls-15" x="540.95" y="455.76" width="100.96" height="32.12" rx="15" transform="translate(76.93 -82.88) rotate(8.57)"/><path class="cls-16" d="M521.92,775.33A648.35,648.35,0,0,1,524.66,864a102.32,102.32,0,0,1-74.54,6.86,508.45,508.45,0,0,0-.43-85.49C473.72,790.43,500.48,787.33,521.92,775.33Z"/><path class="cls-4" d="M527.78,764.21a242.56,242.56,0,0,1-86,14.12c8.16,20.07,29.12,33.32,50.49,29.75S526.59,785.85,527.78,764.21Z"/><path class="cls-16" d="M325.87,776.14a875.61,875.61,0,0,0-16.4,90.76c-20.58,1.25-39.68-5-58.14-14.18a353.32,353.32,0,0,1,18.44-87.43C284.89,778.57,306.59,781.89,325.87,776.14Z"/><path class="cls-4" d="M332.38,771.61a109.75,109.75,0,0,1-64.8-11c.08,6.6-.5,12.94,1.78,19.18s7.18,12,13.89,13.73c4.16,1.07,8.58.53,12.8-.3C311,790.25,320.74,781,332.38,771.61Z"/><path class="cls-13" d="M396.76,252.37a23.65,23.65,0,0,0,44.56,0Z"/><circle class="cls-17" cx="367.71" cy="206.8" r="32.89"/><circle class="cls-17" cx="466.38" cy="206.8" r="32.89"/><path class="cls-5" d="M388.93,301.6a33.47,33.47,0,0,0,63.07,0Z"/></g></g></svg>