<svg xmlns="http://www.w3.org/2000/svg" viewBox="0 0 643.57 1033.22"><defs><style>.cls-1{fill:#42210b;}.cls-2{fill:#fff200;}.cls-3{fill:#603813;}.cls-4{fill:#eeebf6;}.cls-5{fill:#fff;}.cls-6{fill:#f9c09a;}.cls-7{fill:#2e3192;}.cls-8{fill:#f1937b;}.cls-9{fill:#15144a;}.cls-10{fill:gray;}.cls-11{fill:#cec4e5;}.cls-12{fill:#c1e7f4;fill-opacity:0.5;stroke:#42210b;stroke-miterlimit:10;stroke-width:13px;}.cls-13{fill:#9ad8e8;}</style></defs><title>personafail</title><g id="Camada_2" data-name="Camada 2"><g id="Camada_1-2" data-name="Camada 1"><circle class="cls-1" cx="458.41" cy="60.19" r="60.19"/><circle class="cls-2" cx="444.91" cy="69.04" r="50.99"/><path class="cls-3" d="M502.21,123.11c16.1,36.72,19,81.62,16.88,124.34-1.89,37.41-9,78.15-31.24,100-12,11.84-27,16.52-41.57,19.76a279.92,279.92,0,0,1-96.13,4.45c-25.45-3.25-51.33-10.37-72.92-29.12-36.89-32-55.76-96.82-48.48-155.82S267.5,76.6,307.36,52.15,394.26,28.89,435,50.56A150.17,150.17,0,0,1,502.21,123.11Z"/><path class="cls-4" d="M617.76,658.6a164.68,164.68,0,0,1-59.6,110.56C545.58,779.34,530,788,514,785.61c-13.83-2-25.47-12.11-32.57-24.14s-10.31-25.93-13-39.65c-18.21-94.34-9.9-193.21,10-287.21,28.83,26.35,45.75,63.69,54.07,101.85S541.24,614,541.61,653C550,631.84,562.43,611,578.1,594.4,601.82,606.2,620.36,632.23,617.76,658.6Z"/><path class="cls-4" d="M565.47,570.42c-11.11,19-20.09,39.6-23.21,61.39s0,45,11.58,63.68,32.26,32.32,54.27,32.57c34.41-36.43,37.74-98,10.66-140.22-5.73-8.93-13-17.27-22.64-21.77S570.83,561.25,565.47,570.42Z"/><path class="cls-5" d="M145.34,456.17A178.08,178.08,0,0,1,103.83,434l1.49-2.1a50,50,0,0,1-29.39-10.15c-14.3-11-22.07-29.43-21.58-47.46a65,65,0,0,1,2.14-14.76,515.87,515.87,0,0,0-40.82,47.29C8.37,416.42,1.15,426.9.13,438.91c-1.82,21.35,16.14,39,34.09,50.73q8.69,5.67,17.84,10.57c27.87-6.25,56-13.33,81.91-22A90.57,90.57,0,0,1,145.34,456.17Z"/><path class="cls-4" d="M75.93,421.76a50,50,0,0,0,29.39,10.15c23.05-32.24,53.67-58.37,88.46-77.4a503.34,503.34,0,0,0-60.15-60.07,517,517,0,0,0-77.14,65.1,65,65,0,0,0-2.14,14.76C53.86,392.33,61.63,410.76,75.93,421.76Z"/><path class="cls-4" d="M312.17,433.76c-14.7-4.42-30.7-1.24-45,4.41s-27.5,13.67-41.73,19.45c-26,10.57-54.22,8.07-80.13-1.45A90.57,90.57,0,0,0,134,478.25c-25.9,8.63-54,15.71-81.91,22,29.12,15.6,157.66,54.26,190.58,57l103.69-83.73C347.12,458.16,326.87,438.19,312.17,433.76Z"/><path class="cls-4" d="M126.15,326c10.84,15,28.25,24.14,46.2,28.58a154.72,154.72,0,0,0,25.44,3.84c1.86-1.15,3.71-2.3,5.54-3.5a43.55,43.55,0,0,0,5.84-68.35,160.7,160.7,0,0,0-34.27-24.33c-14.43,9.92-31.22,16-45.85,25.6a79.72,79.72,0,0,0-12.83,10.44A53.28,53.28,0,0,0,126.15,326Z"/><path class="cls-5" d="M172.35,354.6C154.4,350.16,137,341,126.15,326a53.28,53.28,0,0,1-9.93-27.72c-8.64,8.73-14.85,19.58-15,31.66-.11,11.37,5.24,22.16,12,31.26a99.2,99.2,0,0,0,26.58,24.47c20.23-7.31,39.82-16.14,57.91-27.25A154.72,154.72,0,0,1,172.35,354.6Z"/><path class="cls-6" d="M267.48,296.73c-7.14-.91-14.68-.54-21.1,2.71s-11.47,9.84-11.39,17c.11,10.22,9.86,17.73,19.49,21.18,8.1,2.9,17.17,4.09,25.28,1.23s14.91-10.47,14.9-19.08C294.66,306.8,280.39,298.37,267.48,296.73Z"/><path class="cls-6" d="M248.33,210c12.89-.94,23.39,9.82,31.08,20.2,5.89,7.95,11.56,16.93,11.34,26.82-.32,13.9-11.94,24.63-23.11,32.9a352.22,352.22,0,0,1-44.95,28.31c-9.11,4.82-18.82,9.34-29.12,9.41-16.75.11-31.08-11.31-43.87-22.13-4.21-3.57-8.73-7.69-9.31-13.18-.79-7.53,6-13.43,12.15-17.88l75.3-54.7C234,215.26,240.68,210.59,248.33,210Z"/><path class="cls-5" d="M326.71,718.16l53.8-297.06c-20.31,1.32-41,2.36-60.26.18-14.34-1.62-28.39,6.41-37.74,17.39s-14.83,24.66-20.16,38.06q-12.14,30.5-24.26,61c-3.88,9.74-7.82,20-6.66,30.39,1.76,15.84,14.63,27.82,26.66,38.27C221,735.28,187.94,899.73,175,1033.22H299.46C297.62,932.64,311.71,806.8,326.71,718.16Z"/><path class="cls-5" d="M500,511.61c1.24-20.64,2.5-42.72-8-60.54-15.19-25.78-49.28-33.1-79.18-31.9-2.63.1-5.28.23-7.95.37-20.35,105.09-46.66,209.07-62,315-14.32,99-18.8,200.8.18,298.68H543.35C504.32,864.09,489.69,684.88,500,511.61Z"/><path class="cls-4" d="M342.94,734.54c15.32-105.93,41.63-209.91,62-315-8,.44-16.18,1-24.41,1.56l-53.8,297.06c-15,88.64-29.09,214.48-27.25,315.06h43.66C324.14,935.34,328.62,833.52,342.94,734.54Z"/><path class="cls-4" d="M326.71,718.16c2.09-75.32-12.19-163.3-41.23-232.83,10-11.79,19.77-23.74,29.79-35.53-8.71,3.3-19.23,6.41-27.93,9.71,16.26-46.8,54.47-85.44,101.09-102.22,25.4,7.24,49.57,22.9,65.55,43.94A124.18,124.18,0,0,1,479.06,475a103.64,103.64,0,0,0-34.14-18.56c8.26,12.09,13.36,24.89,21.62,37C422.65,616.06,373.49,657.36,326.71,718.16Z"/><path class="cls-7" d="M338.74,455.45c0,61.95-4,226-12,262.71,0,0,97.38-198.49,97.38-307.47L364.56,422Z"/><path class="cls-6" d="M353.46,376.6a246.47,246.47,0,0,1-9.1,48.85c-4.44,15.11-9.91,32.9-.26,45.35,8.39,10.82,24.92,11.81,37.65,6.78,20.9-8.25,34.75-29.2,39.87-51.08,4.23-18.08,3.35-36.86,1-55.38a90.58,90.58,0,0,1-69.19,5.48Z"/><path class="cls-8" d="M414.63,292.58c-21.44-.42-46.53.13-67.85,2.42a248,248,0,0,1,6.68,81.6,90.58,90.58,0,0,0,69.19-5.48c-.49-3.87-1-7.74-1.62-11.58C417.69,337.32,413.36,315,414.63,292.58Z"/><path class="cls-6" d="M410.25,180.57c-29.4-14.27-50.84-43.85-55.24-76.24-1.27,20.75-11.83,38.52-28,51.57-11.75,9.48-26.1,15.21-38.3,24.12a62.66,62.66,0,0,0-12,11.35v58.26a96.75,96.75,0,0,0,96.76,96.75h0a96.75,96.75,0,0,0,96.75-96.75V209.54A69,69,0,0,0,451.81,197C438.37,190.51,423.66,187.07,410.25,180.57Z"/><path class="cls-6" d="M574.77,565.81c4.06,5.94,7.18,12.81,7.21,20s-3.52,14.69-10,17.91c-9.15,4.57-20.28-.69-27.74-7.68-6.28-5.89-11.47-13.41-12.63-21.94s2.51-18,10.17-22C553.4,546.21,567.42,555.07,574.77,565.81Z"/><rect class="cls-9" x="378.75" y="510.56" width="273.62" height="182.41" rx="15" transform="matrix(0.15, -0.99, 0.99, 0.15, -156.32, 1021.88)"/><path class="cls-6" d="M641.66,565.93c-5-11.9-19.41-16.34-32.16-18.44-9.76-1.62-20.33-2.57-29,2.15-12.22,6.62-16.47,21.85-18.74,35.57a354.08,354.08,0,0,0-4.68,52.92c-.13,10.3.28,21,4.92,30.2,7.54,14.95,24.24,22.5,39.71,28.94,5.1,2.12,10.83,4.26,16,2.27,7.05-2.73,9.2-11.49,10.36-19q7.17-46,14.32-92C643.52,581,644.65,573,641.66,565.93Z"/><rect class="cls-10" x="487.59" y="455.76" width="100.96" height="32.12" rx="15" transform="translate(76.33 -74.93) rotate(8.57)"/><path class="cls-11" d="M468.56,775.33A648.35,648.35,0,0,1,471.3,864a102.32,102.32,0,0,1-74.54,6.86,508.45,508.45,0,0,0-.43-85.49C420.36,790.43,447.12,787.33,468.56,775.33Z"/><path class="cls-4" d="M474.42,764.21a242.56,242.56,0,0,1-86,14.12c8.16,20.07,29.12,33.32,50.49,29.75S473.23,785.85,474.42,764.21Z"/><path class="cls-11" d="M272.51,776.14a875.61,875.61,0,0,0-16.4,90.76c-20.58,1.25-39.68-5-58.14-14.18a353.32,353.32,0,0,1,18.44-87.43C231.53,778.57,253.23,781.89,272.51,776.14Z"/><path class="cls-4" d="M279,771.61a109.74,109.74,0,0,1-64.8-11c.08,6.6-.5,12.94,1.78,19.18s7.18,12,13.89,13.73c4.16,1.07,8.58.53,12.8-.3C257.64,790.25,267.38,781,279,771.61Z"/><path class="cls-8" d="M343.4,252.37a23.65,23.65,0,0,0,44.56,0Z"/><circle class="cls-12" cx="314.35" cy="206.8" r="32.89"/><circle class="cls-12" cx="413.02" cy="206.8" r="32.89"/><path d="M398.64,323.85a33.47,33.47,0,0,0-63.07,0Z"/><path class="cls-13" d="M296,255.55a14.68,14.68,0,0,1-29.36,0c0-8.11,13.51-20.47,14.68-30.33C283.91,234.67,296,247.44,296,255.55Z"/><path class="cls-13" d="M463,255.55a14.68,14.68,0,0,1-29.36,0c0-8.11,13.51-20.47,14.68-30.33C450.91,234.67,463,247.44,463,255.55Z"/></g></g></svg>