<?xml version="1.0" encoding="iso-8859-1"?>
<!-- Generator: Adobe Illustrator 19.0.0, SVG Export Plug-In . SVG Version: 6.00 Build 0)  -->
<svg version="1.1" id="Capa_1" xmlns="http://www.w3.org/2000/svg" xmlns:xlink="http://www.w3.org/1999/xlink" x="0px" y="0px"
	 viewBox="0 0 512.004 512.004" style="enable-background:new 0 0 512.004 512.004;" xml:space="preserve">
<circle style="fill:#03AA6F;" cx="123.668" cy="220.671" r="17.654"/>
<circle style="fill:#DD2E2B;" cx="203.021" cy="97.095" r="17.654"/>
<path style="fill:#EC9821;" d="M123.624,88.295c14.626,0,26.48,11.854,26.48,26.48s-11.854,26.48-26.48,26.48
	c-0.768-0.044-1.536-0.132-2.295-0.265c-4.705,8.509-15.412,11.59-23.921,6.885s-11.59-15.412-6.885-23.921
	c1.598-2.895,3.99-5.278,6.885-6.885c-0.132-0.759-0.221-1.527-0.265-2.295C97.144,100.149,108.998,88.295,123.624,88.295z"/>
<path style="fill:#74CEE7;" d="M311.547,114.775c4.157,14.344,6.267,29.199,6.267,44.134c-0.009,5.87-0.335,11.731-0.971,17.565
	c-2.754,25.262-11.563,49.483-25.686,70.615c-2.56,3.796-5.296,7.503-8.121,11.034l-0.53-2.118l-19.066-33.365l2.471-1.942
	c10.919-18.757,16.647-40.083,16.594-61.788C282.48,90.687,227.154,35.396,158.931,35.422
	C90.709,35.449,35.418,90.775,35.444,158.998S90.797,282.511,159.02,282.485c15.535-0.009,30.92-2.939,45.37-8.65l11.916,33.277
	c-81.825,31.688-173.853-8.959-205.541-90.784s8.959-173.853,90.793-205.541s173.844,8.959,205.533,90.784
	C308.767,105.904,310.258,110.309,311.547,114.775z"/>
<path style="fill:#DAEFF6;" d="M203.065,114.775c9.754,0,17.654-7.9,17.654-17.654s-7.9-17.654-17.654-17.654
	c-9.754,0-17.654,7.9-17.654,17.654C185.438,106.858,193.33,114.74,203.065,114.775z M211.892,136.842
	c0,7.309,5.932,13.24,13.24,13.24c7.309,0,13.24-5.932,13.24-13.24c0-7.309-5.932-13.24-13.24-13.24
	C217.824,123.602,211.892,129.525,211.892,136.842z M265.913,220.697l-2.472,1.942c-10.063-17.601-32.483-23.718-50.083-13.664
	c-11.457,6.55-18.519,18.739-18.501,31.935c0.018,4.175,0.733,8.324,2.118,12.269l7.415,20.655
	c-63.465,25.104-135.262-5.993-160.366-69.449s5.985-135.271,69.449-160.375s135.262,5.993,160.366,69.449
	c5.72,14.467,8.659,29.888,8.668,45.44C282.56,180.606,276.831,201.931,265.913,220.697z M150.105,114.775
	c0-14.626-11.854-26.48-26.48-26.48s-26.48,11.854-26.48,26.48c0.044,0.768,0.132,1.536,0.265,2.295
	c-8.509,4.705-11.59,15.412-6.885,23.921c4.705,8.509,15.412,11.59,23.921,6.885c2.895-1.598,5.278-3.99,6.885-6.885
	c0.759,0.132,1.527,0.221,2.295,0.265C138.25,141.256,150.105,129.392,150.105,114.775z M141.278,220.697
	c0-9.754-7.9-17.654-17.654-17.654s-17.654,7.9-17.654,17.654c0,9.754,7.9,17.654,17.654,17.654
	C133.36,238.315,141.251,230.433,141.278,220.697z"/>
<path style="fill:#E6BBB1;" d="M353.122,176.563l44.134,88.268l-17.654,44.134l-17.124,9.798l-0.53-0.971l-35.307-70.615h-35.307
	l-0.177-0.088c14.123-21.131,22.932-45.352,25.686-70.615l0.971,0.088L353.122,176.563L353.122,176.563z"/>
<path style="fill:#F5D0C7;" d="M512.004,256.004v255.978H335.468l-52.961-44.134l-26.48-44.134l-26.48-79.441l-13.24-37.161
	l-11.916-33.277l-7.415-20.655c-1.386-3.946-2.101-8.094-2.118-12.269c-0.035-20.275,16.383-36.737,36.649-36.773
	c13.196-0.018,25.386,7.044,31.935,18.501l19.066,33.365l0.53,2.118l5.384,21.626c1.933,7.688,4.678,15.147,8.209,22.244
	l21.184,42.28l44.664-25.51l17.124-9.798l17.654-44.134l-44.134-88.268h-35.307l-0.971-0.088c0.636-5.835,0.962-11.696,0.971-17.565
	c0-14.935-2.11-29.791-6.267-44.134h94.535L512.004,256.004z"/>
<circle style="fill:#FFDB6F;" cx="225.133" cy="136.842" r="13.24"/>
<rect x="185.368" y="167.71" style="fill:#00448F;" width="17.654" height="17.654"/>
<g>
</g>
<g>
</g>
<g>
</g>
<g>
</g>
<g>
</g>
<g>
</g>
<g>
</g>
<g>
</g>
<g>
</g>
<g>
</g>
<g>
</g>
<g>
</g>
<g>
</g>
<g>
</g>
<g>
</g>
</svg>
